<?xml version="1.0" encoding="iso-8859-1"?>
<svg xmlns="http://www.w3.org/2000/svg" xmlns:xlink="http://www.w3.org/1999/xlink" version="1.1" viewBox="0 0 262.758 262.758" enable-background="new 0 0 262.758 262.758" width="512px" height="512px">
  <g>
    <g>
      <path d="m140.95,195.764l-33.062,33.062c-19.141,20.882-53.944,20.882-74.825,0-10.441-10.441-15.661-22.621-15.661-38.283 0-15.661 5.22-27.842 15.661-38.283l33.062-33.062c3.48-3.48 3.48-8.701 0-12.181-3.48-3.48-8.701-3.48-12.181,0l-33.062,33.062c-13.921,13.921-20.882,31.322-20.882,50.464s6.96,36.543 20.882,50.463 33.062,20.882 50.463,20.882c19.141,0 36.543-6.96 48.723-20.882l33.062-33.062c3.48-3.48 3.48-8.701 0-12.181-3.48-3.479-8.7-3.479-12.18,0.001z" fill="#333"/>
      <path d="m241.877,21.752c-27.842-27.842-71.345-27.842-99.187,0l-33.062,33.062c-3.48,3.48-3.48,8.701 0,12.181s8.701,3.48 12.181,0l33.062-33.062c20.882-20.882 53.944-20.882 74.825,0 20.882,20.882 20.882,53.944 0,74.825l-33.062,33.062c-3.48,3.48-3.48,8.701 0,12.181 1.74,1.74 5.22,1.74 6.96,1.74 1.74,0 3.48,0 5.22-1.74l33.062-33.062c27.843-27.842 27.843-71.345 0.001-99.187z" fill="#333"/>
      <path d="m64.385,199.244c1.74,1.74 5.22,1.74 6.96,1.74 3.48,0 5.22-1.74 5.22-1.74l120.068-120.068c3.48-3.48 3.48-8.701 0-12.181s-8.701-3.48-12.181,0l-120.068,120.068c-3.48,3.481-3.48,8.701 0.001,12.181z" fill="#333"/>
    </g>
  </g>
</svg>
