<svg xmlns="http://www.w3.org/2000/svg" xmlns:xlink="http://www.w3.org/1999/xlink" version="1.1" id="Capa_1" x="0px" y="0px" viewBox="0 0 490 490" style="enable-background:new 0 0 490 490;" xml:space="preserve" width="25px" height="25px">
<g>
	<g>
		<path d="M181.837,293.967L20.761,455.041v-50.35c0-5.543-4.494-10.037-10.039-10.037c-5.543,0-10.038,4.494-10.038,10.037v74.582    v0.012v0.676c0,5.547,4.495,10.039,10.038,10.039h75.271c5.543,0,10.04-4.492,10.04-10.039c0-5.543-4.497-10.039-10.04-10.039    h-51.72l161.759-161.756c3.923-3.922,3.923-10.277,0-14.199C192.111,290.047,185.757,290.047,181.837,293.967z" fill="#000333"/>
		<path d="M489.316,479.273v-74.582c0-5.543-4.493-10.037-10.038-10.037c-5.545,0-10.04,4.494-10.04,10.037v50.35L308.167,293.969    c-3.921-3.918-10.275-3.918-14.195,0c-3.923,3.924-3.923,10.279,0,14.199l161.755,161.754h-51.719    c-5.544,0-10.04,4.496-10.04,10.039c0,5.547,4.496,10.039,10.04,10.039h75.27c5.545,0,10.038-4.492,10.038-10.039v-0.676V479.273z    " fill="#000333"/>
	</g>
	<g>
		<path d="M181.837,196.033L20.761,34.963v50.346c0,5.545-4.494,10.037-10.039,10.037c-5.543,0-10.038-4.492-10.038-10.037v-74.58    v-0.01v-0.678C0.684,4.496,5.179,0,10.722,0h75.271c5.543,0,10.04,4.496,10.04,10.041c0,5.543-4.497,10.037-10.04,10.037h-51.72    l161.759,161.76c3.923,3.92,3.923,10.275,0,14.195C192.111,199.955,185.757,199.955,181.837,196.033z" fill="#000333"/>
		<path d="M489.316,10.729v74.58c0,5.545-4.493,10.037-10.038,10.037c-5.545,0-10.04-4.492-10.04-10.037V34.963L308.167,196.029    c-3.921,3.924-10.275,3.924-14.195,0c-3.923-3.918-3.923-10.273,0-14.195L455.727,20.078h-51.719    c-5.544,0-10.04-4.494-10.04-10.037c0-5.545,4.496-10.041,10.04-10.041h75.27c5.545,0,10.038,4.496,10.038,10.041v0.678V10.729z" fill="#000333"/>
	</g>
</g>
</svg>
